Coordinates
version=1
nRows=1
nColumns=38
inDegrees=yes

Units are S.I. units (second, meters, Newtons, ...)
Angles are in degrees.

endheader
time	pelvis_rotation	pelvis_obliquity	pelvis_tilt	pelvis_tx	pelvis_ty	pelvis_tz	hip_flexion_r	hip_adduction_r	hip_rotation_r	knee_angle_r	ankle_angle_r	subtalar_angle_r	mtp_angle_r	hip_flexion_l	hip_adduction_l	hip_rotation_l	knee_angle_l	ankle_angle_l	subtalar_angle_l	mtp_angle_l	lumbar_extension	lumbar_bending	lumbar_rotation	arm_flex_r	arm_add_r	arm_rot_r	elbow_flex_r	pro_sup_r	wrist_flex_r	wrist_dev_r	arm_flex_l	arm_add_l	arm_rot_l	elbow_flex_l	pro_sup_l	wrist_flex_l	wrist_dev_l
      0.00000000	     -6.85493706	     -3.41799005	     25.80087465	     -0.00027619	      0.22137905	      0.00421123	    -24.44544246	     -3.86068730	      2.23293308	     -5.50729002	      6.56907848	      3.15764199	     16.99783500	    -27.17508247	    -10.68831884	    -10.12570954	    -10.21293605	      8.10783008	     -4.68944377	      6.74255279	    -30.27631630	      4.34842723	      8.42986580	     -1.53699242	    -36.08559539	     31.87178271	     26.32743768	    128.84487688	      0.00000000	      0.00000000	      3.87369381	    -28.51095328	     16.28688824	     22.52797589	    138.76005600	      0.00000000	      0.00000000
